<svg width="18" height="18" viewBox="0 0 18 18" fill="none" xmlns="http://www.w3.org/2000/svg">
<g clip-path="url(#clip0)">
<path d="M15.3625 2.63459C11.8473 -0.879592 6.14877 -0.878748 2.63459 2.63652C-0.879592 6.1518 -0.878748 11.8503 2.63652 15.3645C6.1518 18.8786 11.8503 18.8778 15.3645 15.3625C17.0522 13.6743 18 11.3847 17.9995 8.99759C17.999 6.61083 17.0505 4.32202 15.3625 2.63459ZM13.6297 12.5364C13.6293 12.5368 13.6289 12.5372 13.6285 12.5376V12.5346L13.1725 12.9876C12.5828 13.5848 11.7239 13.8305 10.9075 13.6356C10.085 13.4155 9.30313 13.065 8.5915 12.5976C7.93035 12.1751 7.31765 11.6811 6.7645 11.1246C6.25554 10.6194 5.7983 10.0646 5.39949 9.46861C4.96327 8.82729 4.618 8.12867 4.37349 7.3926C4.09319 6.5279 4.32547 5.57907 4.9735 4.94162L5.50749 4.40763C5.65595 4.25849 5.8972 4.25797 6.04629 4.40643C6.04668 4.40682 6.0471 4.4072 6.04749 4.40763L7.73348 6.09362C7.88261 6.24208 7.88314 6.48332 7.73467 6.63242C7.73429 6.63281 7.7339 6.63319 7.73348 6.63362L6.74348 7.62362C6.45941 7.90458 6.4237 8.35107 6.65949 8.67363C7.01756 9.16504 7.4138 9.62745 7.8445 10.0566C8.3247 10.5389 8.84674 10.9776 9.40449 11.3676C9.72677 11.5924 10.1637 11.5545 10.4425 11.2776L11.3995 10.3056C11.5479 10.1565 11.7892 10.156 11.9383 10.3045C11.9387 10.3048 11.939 10.3052 11.9395 10.3056L13.6285 11.9976C13.7776 12.1461 13.7782 12.3873 13.6297 12.5364Z" fill="white"/>
</g>
<defs>
<clipPath id="clip0">
<rect width="18" height="18" fill="white"/>
</clipPath>
</defs>
</svg>
